<?xml version="1.0" standalone="no"?>
<!DOCTYPE svg PUBLIC "-//W3C//DTD SVG 20010904//EN"
 "http://www.w3.org/TR/2001/REC-SVG-20010904/DTD/svg10.dtd">
<svg version="1.0" xmlns="http://www.w3.org/2000/svg"
 width="256.000000pt" height="256.000000pt" viewBox="0 0 256.000000 256.000000"
 preserveAspectRatio="xMidYMid meet">

<g transform="translate(0.000000,256.000000) scale(0.100000,-0.100000)"
fill="#000000" stroke="none">
<path d="M0 1280 l0 -1280 1280 0 1280 0 0 1280 0 1280 -1280 0 -1280 0 0
-1280z m1320 1148 c0 -2 -9 -32 -20 -66 -11 -35 -20 -74 -20 -87 0 -12 -7 -28
-15 -35 -11 -9 -12 -15 -5 -20 18 -11 0 -92 -21 -97 -11 -3 -19 -10 -19 -15 0
-6 7 -8 15 -4 19 7 19 3 -3 -154 -17 -121 -19 -125 -42 -125 -19 0 -25 5 -23
19 1 11 4 67 8 125 3 58 9 122 13 141 l6 35 6 -35 c4 -19 6 33 5 115 -1 83 -6
162 -10 178 l-7 27 66 0 c36 0 66 -1 66 -2z m58 -64 c16 -32 20 -50 13 -62 -8
-13 -11 -10 -18 18 -11 42 -29 49 -37 14 -5 -17 -11 -23 -17 -17 -9 9 19 93
32 93 3 0 15 -21 27 -46z m-199 -1 c6 -21 11 -58 11 -83 0 -39 -5 -50 -35 -79
l-35 -33 -21 26 c-11 14 -26 26 -34 26 -7 0 -18 6 -24 13 -8 11 0 26 35 68 26
29 53 64 61 76 21 32 30 29 42 -14z m366 -113 c101 -29 214 -80 294 -134 75
-50 221 -180 221 -197 0 -14 -51 -10 -102 8 -44 16 -48 16 -66 0 -23 -21 -81
-23 -88 -2 -3 8 1 24 10 37 9 12 16 31 16 41 0 15 -2 16 -14 5 -8 -7 -11 -17
-8 -22 3 -5 0 -6 -6 -2 -6 3 -34 1 -63 -5 -50 -11 -54 -10 -71 11 -24 30 -23
52 7 84 17 19 34 26 60 26 22 0 34 4 30 10 -3 6 0 10 7 10 20 1 -87 54 -183
90 l-86 32 -51 -26 c-28 -14 -54 -26 -57 -26 -5 0 0 28 12 73 5 20 31 18 138
-13z m-470 -55 c14 -13 25 -28 25 -33 0 -4 -46 -48 -102 -98 -56 -49 -133
-118 -172 -154 -38 -36 -66 -60 -63 -54 10 17 -18 25 -33 11 -7 -7 11 18 41
54 80 98 263 298 272 299 4 0 19 -11 32 -25z m-115 7 c0 -5 -39 -26 -87 -46
-49 -21 -116 -53 -151 -71 -35 -18 -61 -28 -59 -22 5 17 90 66 186 108 88 39
111 45 111 31z m359 -22 c11 -24 11 -24 -3 -6 -9 11 -16 24 -16 30 0 12 5 7
19 -24z m-689 -82 c0 -19 -2 -20 -10 -8 -13 19 -13 30 0 30 6 0 10 -10 10 -22z
m530 3 c0 -6 -31 -43 -68 -83 -122 -132 -250 -241 -269 -230 -7 5 21 34 73 76
47 38 122 109 167 157 78 85 97 101 97 80z m-85 -33 c-23 -34 -174 -185 -220
-221 l-40 -32 29 39 c29 38 23 40 -20 7 -11 -9 14 17 55 57 63 61 197 172 209
172 2 0 -4 -10 -13 -22z m90 -16 c0 -10 -13 -39 -27 -63 -41 -69 -264 -275
-245 -226 7 18 -8 24 -18 7 -3 -5 -11 -10 -16 -10 -5 0 31 34 81 75 50 42 121
112 158 155 37 44 67 80 68 80 0 0 0 -8 -1 -18z m-505 -61 c0 -9 4 -10 13 -3
14 12 158 64 163 59 2 -2 -35 -21 -81 -42 -47 -21 -85 -42 -85 -47 0 -5 5 -18
11 -29 6 -11 9 -25 6 -32 -4 -12 -58 139 -56 158 1 14 28 -46 29 -64z m-54
-58 l-25 -50 -41 10 -40 11 57 58 c51 52 59 56 66 40 6 -13 1 -34 -17 -69z
m470 -77 c-47 -52 -104 -103 -125 -113 -31 -16 -15 4 82 98 67 64 124 115 126
113 2 -2 -35 -46 -83 -98z m880 17 c14 -15 21 -29 15 -31 -29 -10 -2 -62 31
-62 11 0 18 -7 18 -20 0 -11 -7 -20 -15 -20 -21 0 -19 -23 6 -54 12 -15 19
-29 16 -32 -3 -3 -15 8 -27 24 -19 26 -26 29 -46 21 -13 -4 -24 -6 -24 -3 0 4
-7 1 -15 -6 -30 -25 -7 29 27 60 31 30 32 31 8 26 -14 -3 -45 -6 -70 -6 -37
-1 -42 -3 -27 -11 11 -6 30 -9 43 -6 13 2 24 1 24 -4 0 -11 -38 -22 -50 -14
-5 3 -7 0 -4 -9 4 -10 -5 -20 -30 -30 -34 -14 -49 -36 -25 -36 5 0 8 -4 5 -9
-8 -12 46 -21 88 -14 24 4 36 2 36 -6 0 -6 -8 -11 -17 -11 -15 0 -16 -2 -3
-10 10 -7 -21 -10 -98 -10 -87 0 -114 3 -118 14 -4 10 -26 13 -90 12 -94 -1
-108 11 -50 44 26 16 32 25 29 44 -10 52 65 117 139 119 24 0 59 -2 79 -6 34
-7 36 -6 32 17 -4 17 2 28 18 40 34 23 67 20 95 -11z m-1414 -18 c95 12 124
-22 103 -122 -5 -20 -7 -21 -33 -7 -44 23 -71 15 -37 -10 12 -8 -1 -11 -55
-12 -38 -1 -70 3 -70 7 0 5 -5 9 -11 9 -6 0 5 -24 26 -52 l36 -53 -38 41 c-21
22 -65 59 -98 81 -99 67 -113 103 -19 48 l43 -25 42 56 c27 37 44 52 49 44 5
-8 24 -10 62 -5z m1600 -26 c3 -8 13 -7 35 5 42 21 70 22 53 1 -7 -8 -22 -15
-34 -15 -19 -1 -19 -2 -4 -11 10 -5 22 -18 28 -29 10 -18 7 -19 -44 -14 -32 3
-57 1 -61 -6 -10 -16 -25 -12 -18 5 3 10 0 15 -8 13 -8 -2 -14 5 -14 14 0 9
-3 20 -7 23 -14 14 4 36 24 29 15 -4 18 -3 13 6 -6 9 -3 9 13 1 11 -6 22 -16
24 -22z m-1055 3 c-10 -10 -17 -25 -17 -33 0 -9 -13 -28 -30 -44 -16 -16 -30
-23 -30 -16 0 7 -5 9 -12 5 -7 -4 12 19 42 50 30 31 56 56 59 56 2 0 -3 -8
-12 -18z m941 -22 c7 -11 10 -20 7 -20 -3 0 -14 9 -25 20 -12 12 -15 20 -7 20
7 0 18 -9 25 -20z m-1228 -14 c0 -2 -8 -10 -17 -17 -16 -13 -17 -12 -4 4 13
16 21 21 21 13z m472 -119 c10 -27 14 -46 9 -43 -10 6 -41 93 -40 110 0 6 3 4
6 -4 3 -8 14 -37 25 -63z m942 17 c3 -8 2 -12 -4 -9 -6 3 -10 10 -10 16 0 14
7 11 14 -7z m-104 -1 c0 -5 -11 -26 -23 -48 -25 -45 -50 -52 -55 -16 -2 14 0
21 7 17 7 -4 8 -1 5 8 -3 9 -1 16 4 16 6 0 12 -8 15 -17 4 -17 4 -17 10 0 4 9
9 24 12 32 4 15 25 21 25 8z m-740 -75 c32 -39 27 -43 -12 -10 -23 19 -23 5
-1 -22 13 -15 10 -14 -10 3 -16 15 -23 27 -17 31 6 4 8 14 4 23 -10 27 0 20
36 -25z m625 2 c-10 -11 -27 -20 -38 -20 -17 0 -15 4 13 25 38 28 52 25 25 -5z
m265 -25 c0 -5 -5 -3 -10 5 -5 8 -10 20 -10 25 0 6 5 3 10 -5 5 -8 10 -19 10
-25z m-935 -15 l20 -25 -22 19 c-13 11 -23 24 -23 29 0 6 1 8 3 6 1 -2 11 -15
22 -29z m-57 -3 c110 -82 163 -247 111 -348 -25 -50 -93 -126 -130 -145 -16
-8 -46 -14 -68 -14 -51 0 -88 31 -130 109 -26 49 -33 75 -36 136 -2 41 -6 79
-9 84 -13 20 29 107 74 153 44 46 49 48 101 48 42 0 63 -6 87 -23z m439 -104
c18 -71 46 -188 64 -260 17 -73 35 -133 41 -133 6 0 7 9 3 23 -3 12 -9 117
-12 232 -3 116 -9 218 -14 228 -9 15 -4 17 53 17 l63 0 -3 -135 -4 -135 67 0
67 0 -4 135 -3 135 65 0 65 0 0 -345 0 -344 -77 1 c-76 1 -77 1 -63 22 11 15
15 53 15 153 l0 133 -66 0 -65 0 3 -148 3 -148 -75 -11 c-41 -6 -84 -14 -95
-19 -17 -7 -15 -3 8 25 15 18 27 44 27 57 0 14 -15 71 -34 127 -18 56 -48 153
-66 215 -18 61 -37 112 -41 112 -4 0 -15 -24 -24 -52 -62 -189 -209 -389 -333
-452 -91 -46 -217 -34 -297 27 l-20 16 20 6 c11 3 34 13 51 21 23 11 37 13 58
5 44 -17 116 -13 163 10 65 31 148 130 198 234 53 110 96 251 98 323 l1 52 66
0 65 0 32 -127z m-938 -4 c95 -178 92 -177 89 -21 l-3 132 69 0 c61 0 67 -2
61 -17 -11 -26 -24 -137 -24 -214 -1 -81 19 -153 59 -207 28 -40 29 -42 10
-52 -12 -7 -21 -7 -25 0 -13 21 -23 9 -27 -31 -5 -53 8 -58 62 -24 23 15 44
24 46 22 3 -2 -19 -19 -47 -38 -35 -22 -54 -29 -57 -21 -2 8 -9 9 -21 3 -38
-21 -64 9 -141 164 l-75 150 -8 -155 c-4 -85 -6 -182 -3 -216 l5 -61 -107 -7
c-59 -3 -117 -9 -129 -12 -33 -9 -28 8 9 31 18 11 41 36 53 55 19 33 20 53 23
330 1 162 2 298 2 303 0 4 26 7 58 7 l57 0 64 -121z m1201 105 c0 -17 -22 -14
-28 4 -2 7 3 12 12 12 9 0 16 -7 16 -16z m-1453 -24 l24 -19 -49 -36 c-28 -19
-53 -43 -57 -53 -4 -11 3 -9 22 9 55 51 93 62 93 26 0 -20 -11 -28 -67 -51
-38 -15 -80 -39 -95 -54 -16 -14 -28 -22 -28 -16 0 21 61 113 94 142 37 32 40
57 8 65 -11 3 -9 5 6 6 13 0 35 -8 49 -19z m1253 5 c0 -8 -9 -15 -20 -15 -11
0 -20 7 -20 15 0 8 9 15 20 15 11 0 20 -7 20 -15z m-967 -12 c-7 -2 -19 -2
-25 0 -7 3 -2 5 12 5 14 0 19 -2 13 -5z m1170 -45 c-17 -19 -17 -20 0 -33 9
-7 17 -25 17 -42 0 -27 -3 -29 -29 -25 -27 4 -28 6 -28 62 0 60 10 74 45 62
10 -3 8 -9 -5 -24z m-211 -10 c-6 -6 -15 -8 -19 -4 -4 4 -1 11 7 16 19 12 27
3 12 -12z m-337 -8 c10 -11 16 -22 13 -25 -3 -3 -11 1 -18 10 -7 8 -18 15 -26
15 -7 0 -16 5 -19 10 -12 19 32 10 50 -10z m825 -12 c0 -4 -4 -10 -10 -13 -23
-14 -7 -87 17 -78 8 3 2 -7 -14 -23 l-28 -29 -9 23 c-4 13 -5 52 -1 87 6 60 8
63 26 52 10 -6 19 -15 19 -19z m-1900 -102 c0 -24 -18 -28 -30 -6 -9 17 -8 20
10 20 11 0 20 -6 20 -14z m122 -37 c-1 -9 11 -52 26 -95 16 -44 32 -92 36
-109 6 -26 3 -24 -23 17 -21 33 -49 58 -95 85 -73 42 -80 60 -41 99 20 20 34
25 63 22 28 -2 36 -7 34 -19z m1758 -140 c0 -10 -7 -19 -15 -19 -16 0 -19 9
-9 34 8 20 24 11 24 -15z m-570 -79 c11 -11 20 -30 20 -41 0 -17 -4 -20 -22
-15 -13 3 -39 6 -58 7 -19 0 -29 3 -22 6 6 2 12 12 12 22 0 20 19 41 37 41 7
0 22 -9 33 -20z m327 -152 c-3 -7 -5 -2 -5 12 0 14 2 19 5 13 2 -7 2 -19 0
-25z m-407 -132 l24 -14 -39 -11 c-76 -21 -117 -8 -73 23 27 19 55 20 88 2z
m-547 -32 c20 -3 40 -11 44 -17 6 -10 -204 -3 -214 7 -6 6 99 24 117 20 8 -2
32 -6 53 -10z m713 -350 c65 -31 92 -111 59 -174 -9 -17 -17 -30 -18 -30 -1 0
0 23 2 51 2 39 0 50 -9 44 -7 -4 -15 -3 -19 2 -4 6 -46 6 -110 1 -92 -7 -107
-5 -125 10 -14 12 -17 12 -9 2 28 -37 -9 -86 -47 -62 -11 7 -20 8 -20 3 0 -10
-165 -9 -175 1 -4 4 -16 2 -26 -5 -15 -9 -24 -9 -39 1 -11 7 -20 8 -20 3 0 -5
-13 -9 -30 -9 -20 1 -30 6 -30 17 -1 14 -2 13 -11 -1 -5 -10 -14 -18 -19 -18
-6 0 -11 8 -11 18 -1 16 -2 16 -6 0 -8 -30 -22 -20 -29 20 -7 35 -8 35 -15 12
-4 -14 -7 -19 -8 -11 -1 9 -9 11 -25 7 -13 -3 -26 -2 -28 4 -2 6 -27 3 -63 -6
-33 -9 -79 -14 -103 -11 l-43 5 6 -32 c6 -29 5 -30 -10 -12 -20 26 -19 95 1
125 9 12 30 31 48 42 29 18 55 19 464 19 378 0 438 -2 468 -16z"/>
<path d="M1099 2303 c-13 -16 -12 -17 4 -4 9 7 17 15 17 17 0 8 -8 3 -21 -13z"/>
<path d="M497 1759 c7 -7 15 -10 18 -7 3 3 -2 9 -12 12 -14 6 -15 5 -6 -5z"/>
<path d="M1152 1497 c-79 -84 -81 -242 -4 -329 37 -43 84 -9 116 85 28 84 17
147 -39 221 -34 45 -49 49 -73 23z"/>
<path d="M1478 363 c7 -3 16 -2 19 1 4 3 -2 6 -13 5 -11 0 -14 -3 -6 -6z"/>
</g>
</svg>
